<svg width="23" height="21" viewBox="0 0 23 21" fill="none" xmlns="http://www.w3.org/2000/svg">
<path d="M10.6436 21C9.26022 21 7.96022 20.7375 6.74355 20.2125C5.52689 19.6875 4.46855 18.975 3.56855 18.075C2.66855 17.175 1.95605 16.1167 1.43105 14.9C0.906055 13.6833 0.643555 12.3833 0.643555 11C0.643555 9.61667 0.906055 8.31667 1.43105 7.1C1.95605 5.88333 2.66855 4.825 3.56855 3.925C4.46855 3.025 5.52689 2.3125 6.74355 1.7875C7.96022 1.2625 9.26022 1 10.6436 1C11.3936 1 12.1227 1.07917 12.8311 1.2375C13.5394 1.39583 14.2102 1.625 14.8436 1.925C14.7769 2.09167 14.7269 2.26667 14.6936 2.45C14.6602 2.63333 14.6436 2.81667 14.6436 3C14.6436 3.23333 14.6686 3.45417 14.7186 3.6625C14.7686 3.87083 14.8352 4.06667 14.9186 4.25C14.3019 3.86667 13.6352 3.5625 12.9186 3.3375C12.2019 3.1125 11.4436 3 10.6436 3C8.42689 3 6.53939 3.77917 4.98105 5.3375C3.42272 6.89583 2.64355 8.78333 2.64355 11C2.64355 13.2167 3.42272 15.1042 4.98105 16.6625C6.53939 18.2208 8.42689 19 10.6436 19C12.8602 19 14.7477 18.2208 16.3061 16.6625C17.8644 15.1042 18.6436 13.2167 18.6436 11C18.6436 10.3333 18.5644 9.69167 18.4061 9.075C18.2477 8.45833 18.0269 7.875 17.7436 7.325C18.0102 7.54167 18.3019 7.70833 18.6186 7.825C18.9352 7.94167 19.2769 8 19.6436 8C19.7269 8 19.8144 7.99583 19.9061 7.9875C19.9977 7.97917 20.0852 7.96667 20.1686 7.95C20.3186 8.43333 20.4352 8.92917 20.5186 9.4375C20.6019 9.94583 20.6436 10.4667 20.6436 11C20.6436 12.3833 20.3811 13.6833 19.8561 14.9C19.3311 16.1167 18.6186 17.175 17.7186 18.075C16.8186 18.975 15.7602 19.6875 14.5436 20.2125C13.3269 20.7375 12.0269 21 10.6436 21ZM14.1436 10C14.5769 10 14.9352 9.85833 15.2186 9.575C15.5019 9.29167 15.6436 8.93333 15.6436 8.5C15.6436 8.06667 15.5019 7.70833 15.2186 7.425C14.9352 7.14167 14.5769 7 14.1436 7C13.7102 7 13.3519 7.14167 13.0686 7.425C12.7852 7.70833 12.6436 8.06667 12.6436 8.5C12.6436 8.93333 12.7852 9.29167 13.0686 9.575C13.3519 9.85833 13.7102 10 14.1436 10ZM7.14355 10C7.57689 10 7.93522 9.85833 8.21855 9.575C8.50189 9.29167 8.64355 8.93333 8.64355 8.5C8.64355 8.06667 8.50189 7.70833 8.21855 7.425C7.93522 7.14167 7.57689 7 7.14355 7C6.71022 7 6.35189 7.14167 6.06855 7.425C5.78522 7.70833 5.64355 8.06667 5.64355 8.5C5.64355 8.93333 5.78522 9.29167 6.06855 9.575C6.35189 9.85833 6.71022 10 7.14355 10ZM10.6436 16.5C11.8269 16.5 12.8727 16.175 13.7811 15.525C14.6894 14.875 15.3436 14.0333 15.7436 13H5.54355C5.94355 14.0333 6.59772 14.875 7.50605 15.525C8.41439 16.175 9.46022 16.5 10.6436 16.5ZM18.6436 4H17.6436C17.3602 4 17.1227 3.90417 16.9311 3.7125C16.7394 3.52083 16.6436 3.28333 16.6436 3C16.6436 2.71667 16.7394 2.47917 16.9311 2.2875C17.1227 2.09583 17.3602 2 17.6436 2H18.6436V1C18.6436 0.716667 18.7394 0.479167 18.9311 0.2875C19.1227 0.0958333 19.3602 0 19.6436 0C19.9269 0 20.1644 0.0958333 20.3561 0.2875C20.5477 0.479167 20.6436 0.716667 20.6436 1V2H21.6436C21.9269 2 22.1644 2.09583 22.3561 2.2875C22.5477 2.47917 22.6436 2.71667 22.6436 3C22.6436 3.28333 22.5477 3.52083 22.3561 3.7125C22.1644 3.90417 21.9269 4 21.6436 4H20.6436V5C20.6436 5.28333 20.5477 5.52083 20.3561 5.7125C20.1644 5.90417 19.9269 6 19.6436 6C19.3602 6 19.1227 5.90417 18.9311 5.7125C18.7394 5.52083 18.6436 5.28333 18.6436 5V4Z" fill="black"/>
</svg>
