<svg width="25" height="24" viewBox="0 0 25 24" fill="none" xmlns="http://www.w3.org/2000/svg">
<path d="M10.9801 0L12.9801 4L14.9801 0H10.9801ZM18.1401 0.4L17.8601 4.88L21.5801 2.4L18.1401 0.4ZM4.38013 2.4L8.14013 4.88L7.86013 0.4L4.38013 2.4Z" fill="#4AA9FF"/>
<path d="M8.34012 24H3.62012V18.84L9.14012 20.12C7.82012 21.52 8.34012 24 8.34012 24Z" fill="#EBA352"/>
<path d="M7.90031 23.9999H2.62031C2.62031 23.9999 2.70031 21.4399 1.82031 19.2399L8.42031 20.1999C7.66031 22.1599 7.90031 23.9999 7.90031 23.9999ZM7.38031 16.9599H9.38031V8.07994C9.38031 7.47994 8.94031 6.99994 8.38031 6.99994C7.82031 6.99994 7.38031 7.47994 7.38031 8.11994V16.9599ZM5.02031 16.9599H7.38031V7.31994C7.38031 6.59994 6.86031 5.99994 6.18031 5.99994C5.54031 5.99994 4.98031 6.59994 4.98031 7.31994V16.9599H5.02031Z" fill="#FFDD67"/>
<path d="M2.9801 16.9599H5.0601V7.87993C5.0601 7.23993 4.5801 6.71992 4.0201 6.71992C3.4601 6.71992 2.9801 7.23993 2.9801 7.87993V16.9599ZM2.0201 8.07993C1.5001 8.07993 1.1001 8.55993 1.1001 9.15993V16.9599H2.9801V9.15993C2.9801 8.55993 2.5401 8.07993 2.0201 8.07993Z" fill="#FFDD67"/>
<path d="M8.38011 6.95997H8.18011C8.66011 7.03997 9.02011 7.51997 9.02011 8.03997V16.96H9.38011V8.07997C9.38011 7.47997 8.94011 6.95997 8.38011 6.95997ZM6.22011 5.99997C6.14011 5.99997 6.10011 5.99997 6.06011 6.03997C6.62011 6.11997 7.06011 6.67997 7.06011 7.31997V13.76L7.42011 14.16V7.31997C7.38011 6.59997 6.86011 5.99997 6.22011 5.99997ZM4.02011 6.71997H3.86011C4.34011 6.79997 4.70011 7.27997 4.70011 7.83997V13.72L5.06011 14.12V7.87997C5.02011 7.23997 4.58011 6.71997 4.02011 6.71997ZM2.02011 8.07997C1.94011 8.07997 1.90011 8.07997 1.86011 8.11997C2.30011 8.19997 2.62011 8.63997 2.62011 9.15997V13.76L2.98011 14.16V9.15997C2.98011 8.55997 2.54011 8.07997 2.02011 8.07997Z" fill="#EBA352"/>
<path d="M12.7401 12.88C12.1401 12.2 10.9401 12.52 10.1001 14.28C9.50006 15.48 9.34006 15.24 9.02006 15.32V14.24C9.02006 14.24 1.06005 13.72 1.06005 14.92C1.06005 14.92 0.700054 17.88 1.46005 19.72C2.62005 22.48 8.54006 23.2 10.3801 18.52C10.7401 17.6 11.2601 16.6 11.6601 15.6C12.1801 14.4 13.4201 13.68 12.7401 12.88Z" fill="#FFDD67"/>
<path d="M12.3401 12.6C13.6201 13.56 11.2601 15.4 10.1401 18.24C8.54015 22.32 3.86015 22.32 1.90015 20.44C3.70015 22.56 8.70015 22.96 10.3801 18.52C11.5001 15.64 14.2201 13.44 12.3401 12.6Z" fill="#EBA352"/>
<path d="M9.37993 15.28C7.81993 14.72 4.53993 15.8 4.97993 18.92C4.97993 16 7.57993 15.32 9.01994 15.32C9.21993 15.32 9.37993 15.28 9.37993 15.28ZM17.6199 24H22.3399V18.84L16.8199 20.12C18.1399 21.52 17.6199 24 17.6199 24Z" fill="#EBA352"/>
<path d="M18.0601 24H23.3401C23.3401 24 23.2601 21.44 24.1401 19.24L17.5401 20.2C18.3001 22.16 18.0601 24 18.0601 24ZM18.5801 16.96H16.5801V8.07997C16.5801 7.47997 17.0201 6.99997 17.5801 6.99997C18.1401 6.99997 18.5801 7.47997 18.5801 8.11997V16.96ZM20.9401 16.96H18.5801V7.31997C18.5801 6.59997 19.1001 5.99997 19.7801 5.99997C20.4201 5.99997 20.9801 6.59997 20.9801 7.31997V16.96H20.9401Z" fill="#FFDD67"/>
<path d="M22.9799 16.9599H20.8999V7.87993C20.8999 7.23993 21.3799 6.71992 21.9399 6.71992C22.4999 6.71992 22.9799 7.23993 22.9799 7.87993V16.9599ZM23.9399 8.07993C24.4599 8.07993 24.8599 8.55993 24.8599 9.15993V16.9599H22.9799V9.15993C22.9799 8.55993 23.4199 8.07993 23.9399 8.07993Z" fill="#FFDD67"/>
<path d="M17.5801 6.95997H17.7801C17.3001 7.03997 16.9401 7.51997 16.9401 8.03997V16.96H16.5801V8.07997C16.5801 7.47997 17.0201 6.95997 17.5801 6.95997ZM19.7401 5.99997C19.8201 5.99997 19.8601 5.99997 19.9001 6.03997C19.3401 6.11997 18.9001 6.67997 18.9001 7.31997V13.76L18.5401 14.16V7.31997C18.5801 6.59997 19.1001 5.99997 19.7401 5.99997ZM21.9401 6.71997H22.1001C21.6201 6.79997 21.2601 7.27997 21.2601 7.83997V13.72L20.9001 14.12V7.87997C20.9401 7.23997 21.3801 6.71997 21.9401 6.71997ZM23.9401 8.07997C24.0201 8.07997 24.0601 8.07997 24.1001 8.11997C23.6601 8.19997 23.3401 8.63997 23.3401 9.15997V13.76L22.9801 14.16V9.15997C22.9801 8.55997 23.4201 8.07997 23.9401 8.07997Z" fill="#EBA352"/>
<path d="M13.2201 12.88C13.8201 12.2 15.0201 12.52 15.8601 14.28C16.4601 15.48 16.6201 15.24 16.9401 15.32V14.24C16.9401 14.24 24.9001 13.72 24.9001 14.92C24.9001 14.92 25.2601 17.88 24.5001 19.72C23.3401 22.48 17.4201 23.2 15.5801 18.52C15.2201 17.6 14.7001 16.6 14.3001 15.6C13.7801 14.4 12.5401 13.68 13.2201 12.88Z" fill="#FFDD67"/>
<path d="M13.6202 12.6C12.3402 13.56 14.7002 15.4 15.8202 18.24C17.4202 22.32 22.1002 22.32 24.0602 20.44C22.2602 22.56 17.2602 22.96 15.5802 18.52C14.4602 15.64 11.7402 13.44 13.6202 12.6Z" fill="#EBA352"/>
<path d="M16.5801 15.28C18.1401 14.72 21.4201 15.8 20.9801 18.92C20.9801 16 18.3801 15.32 16.9401 15.32C16.7401 15.32 16.5801 15.28 16.5801 15.28Z" fill="#EBA352"/>
</svg>
