<svg width="200" height="200" viewBox="0 0 200 200" fill="none" xmlns="http://www.w3.org/2000/svg">
<path d="M200 0H0V200H200V0Z" fill="#797EF3"/>
<path d="M154 91.36C152.76 88.24 152.64 84.76 152.52 81.4C152.4 77.32 153.04 73 155.12 69.76C156.72 67.24 159.24 65.36 162.88 64.8C165.28 64.44 168.88 64.6 170.52 66.56C172.28 68.64 173.12 72.44 173.24 75.08C173.4 78.6 172.4 82 171.44 85.32C170.36 88.96 169.36 96.64 164.84 97.56C160.08 98.6 155.68 95.68 154 91.36Z" fill="#D9A48E"/>
<path d="M137.72 200H48.72C49.04 198.64 49.3599 197.28 49.6799 195.92C56.0399 168.64 58.5199 142.2 58.8799 113.6C81.3999 121.92 105.08 118.36 128.32 118C136.96 117.88 134.08 127.68 134.16 136.84C134.28 148.28 134.72 159.68 135.4 171.04C136 180.72 136.76 190.4 137.72 200Z" fill="#D9A48E"/>
<path d="M161.72 54.88C164 65.88 163.36 77.48 164.12 89.12C164.44 94.2 164.92 99.24 165.6 104.28C167.72 119.8 171.76 136.44 164.92 150.52C159.88 160.88 149.48 167.92 138.32 170.88C130.24 173.04 121.92 173.12 113.64 172.4C100.8 171.28 87.32 168.04 75.7201 161.68C68.6 157.8 62.2 152.72 57.08 146.32C50.36 137.84 48.5201 130.4 47.3201 120.12C43.28 85.6 22.6 46.28 60.7201 22.48C88.68 4.99997 135.16 8.67997 154.48 37.32C158.32 42.92 160.48 48.8 161.72 54.88Z" fill="#E5B69E"/>
<path d="M106.102 101.799C109.243 101.172 110.931 96.3614 109.873 91.0534C108.814 85.7455 105.409 81.9505 102.268 82.577C99.1265 83.2036 97.4381 88.0144 98.4967 93.3224C99.5554 98.6303 102.96 102.425 106.102 101.799Z" fill="#1B1464"/>
<path d="M142.738 91.6345C145.88 91.0079 147.568 86.197 146.509 80.8891C145.451 75.5812 142.046 71.7862 138.904 72.4127C135.763 73.0393 134.075 77.8501 135.133 83.1581C136.192 88.466 139.597 92.261 142.738 91.6345Z" fill="#1B1464"/>
<path d="M91.8319 75.576C93.5679 74.22 96.4239 72.792 99.3999 72.204C102.392 71.616 105.1 71.944 107.008 73.504L109.792 70.096C106.46 67.376 102.208 67.168 98.5519 67.888C94.8799 68.612 91.3919 70.34 89.1279 72.108L91.8319 75.576ZM107.008 73.504C107.948 74.272 109.336 74.132 110.104 73.192C110.872 72.252 110.732 70.864 109.792 70.096L107.008 73.504ZM89.1279 72.104C88.1679 72.852 87.9999 74.232 88.7479 75.192C89.4959 76.152 90.8759 76.32 91.8359 75.572L89.1279 72.104Z" fill="#1B1464"/>
<path d="M128.32 59.84C129.624 61.612 129.624 61.612 129.624 61.612C129.624 61.612 129.628 61.608 129.632 61.608C129.64 61.6 129.656 61.588 129.684 61.572C129.732 61.536 129.812 61.484 129.92 61.412C130.136 61.272 130.46 61.068 130.872 60.84C131.704 60.38 132.852 59.836 134.156 59.468C136.764 58.732 139.68 58.748 142.168 61.112L145.2 57.924C141.164 54.088 136.404 54.264 132.96 55.236C131.24 55.724 129.772 56.42 128.744 56.992C128.224 57.28 127.808 57.536 127.516 57.728C127.368 57.824 127.252 57.904 127.168 57.96C127.128 57.988 127.092 58.012 127.068 58.032C127.056 58.04 127.044 58.048 127.036 58.056C127.032 58.06 127.028 58.06 127.024 58.064L127.02 58.068C127.016 58.068 127.016 58.068 128.32 59.84ZM142.164 61.116C143.044 61.952 144.436 61.92 145.276 61.036C146.112 60.156 146.08 58.764 145.196 57.924L142.164 61.116ZM127.016 58.068C126.04 58.788 125.832 60.168 126.552 61.144C127.272 62.12 128.652 62.328 129.628 61.608L127.016 58.068Z" fill="#1B1464"/>
<path d="M107.944 135.896C115.556 141.444 125.632 143.372 134.752 141.008L133.648 136.748C125.808 138.784 117.084 137.112 110.536 132.34L107.944 135.896ZM134.752 141.008C135.928 140.704 136.636 139.504 136.328 138.328C136.024 137.152 134.824 136.444 133.648 136.752L134.752 141.008ZM110.536 132.344C109.556 131.628 108.176 131.844 107.464 132.828C106.752 133.812 106.964 135.188 107.948 135.9L110.536 132.344Z" fill="#1B1464"/>
<path d="M130.076 86.996C129.668 85.02 129.792 82.964 129.956 80.552L125.568 80.256C125.412 82.564 125.216 85.228 125.768 87.892L130.076 86.996ZM136.464 98.352C133.344 95.116 130.968 91.356 130.076 87L125.764 87.884C126.872 93.284 129.78 97.764 133.296 101.412L136.464 98.352ZM138.268 112.464C140.284 109.976 140.852 107.32 140.264 104.736C139.708 102.292 138.168 100.144 136.472 98.364L133.284 101.396C134.748 102.932 135.672 104.388 135.972 105.712C136.244 106.896 136.072 108.184 134.848 109.692L138.268 112.464ZM120.596 114.992C123.136 116.048 126.392 116.708 129.544 116.512C132.688 116.316 136.028 115.232 138.268 112.468L134.852 109.696C133.656 111.172 131.692 111.968 129.268 112.12C126.852 112.272 124.268 111.752 122.284 110.928L120.596 114.992ZM129.956 80.548C130.04 79.336 129.124 78.288 127.908 78.204C126.696 78.12 125.648 79.036 125.564 80.252L129.956 80.548ZM127.92 87.44L130.076 87V86.996L127.92 87.44ZM134.88 99.88L136.472 98.364C136.468 98.36 136.464 98.356 136.46 98.352L134.88 99.88ZM122.284 110.928C121.164 110.46 119.876 110.992 119.408 112.116C118.94 113.236 119.472 114.524 120.596 114.992L122.284 110.928Z" fill="#1B1464"/>
<path d="M137.96 139.6C137.96 139.68 137.92 139.76 137.92 139.84C137.68 141.4 136.88 142.8 135.88 144C132.48 148.08 126.84 149.96 121.6 149.32C116.36 148.68 111.52 145.72 108.04 141.72C106.28 139.68 104.84 137.32 104.44 134.68C104.28 133.6 104.36 132.36 105.2 131.68C105.52 131.4 105.92 131.24 106.32 131.12C111.12 129.56 116.24 131.56 121.12 132.8C124 133.52 126.96 134 129.92 134.32C133.84 134.76 138.68 133.92 137.96 139.6ZM164.16 89.12C163.64 90.48 163.32 91.88 163.04 93.28C161.88 99.44 162.44 105.88 160.52 111.92C158.8 117.32 154.28 122.2 150 125.76C149.04 126.56 148 127.36 146.8 127.8C142.36 129.44 138 126.96 133.64 126.88C130.68 126.8 127.72 127.2 124.76 127.04C118.4 126.68 112.28 123.64 105.88 123.92C99.72 124.2 94.84 128.28 89.08 130.08C85.28 131.28 81.04 130.6 77.52 128.72C74.48 127.12 71.24 124.56 69.6 121.48C67.72 117.92 67.32 113.32 65.92 109.52C65.08 107.2 60.52 97.52 59.44 104.6C58.76 108.96 58.56 113.24 56.96 117.44C56.04 119.88 54.8 122.2 54 124.68C48.52 141.88 61.96 154.2 75.68 161.72C87.28 168.04 100.76 171.32 113.6 172.44C121.84 173.16 130.2 173.04 138.28 170.92C149.4 167.96 159.84 160.88 164.88 150.56C171.72 136.48 167.68 119.84 165.56 104.32C164.96 99.24 164.48 94.2 164.16 89.12Z" fill="#1B1464"/>
<path d="M53.84 85.1999C50.92 82.5199 47.12 80.9999 42.24 81.5599C35.12 82.3199 28.96 88.1199 27.28 95.0799C24.56 106.28 33.2 118.4 43.24 122.68C52.16 126.48 61.52 122.36 62.64 112.36C63.16 107.92 62.12 103.48 61.12 99.1599C59.92 93.9199 57.6 88.5999 53.84 85.1999Z" fill="#E5B69E"/>
<path d="M51.56 102.6C51.56 100.4 51.56 100.4 51.56 100.4C51.56 100.4 51.56 100.4 51.556 100.4H51.552C51.548 100.4 51.544 100.4 51.54 100.4C51.528 100.4 51.516 100.4 51.5 100.4C51.468 100.4 51.424 100.4 51.372 100.404C51.264 100.408 51.1119 100.412 50.9279 100.42C50.5559 100.44 50.036 100.48 49.424 100.556C48.212 100.712 46.5559 101.024 44.9279 101.684C43.3119 102.336 41.548 103.4 40.356 105.164C39.116 107 38.68 109.32 39.292 112.076L43.5879 111.12C43.1999 109.376 43.532 108.324 44 107.624C44.52 106.856 45.4079 106.232 46.5759 105.76C47.7279 105.292 48.9759 105.044 49.9759 104.92C50.4679 104.856 50.88 104.828 51.16 104.812C51.3 104.804 51.4079 104.8 51.4799 104.8C51.5159 104.8 51.54 104.8 51.552 104.8C51.56 104.8 51.564 104.8 51.564 104.8C51.56 104.8 51.56 104.8 51.56 102.6ZM36.6 96.12C37.212 98.232 37.212 98.232 37.212 98.232C37.212 98.232 37.2199 98.232 37.2279 98.228C37.2439 98.224 37.268 98.216 37.308 98.208C37.384 98.188 37.5 98.16 37.656 98.124C37.968 98.052 38.4239 97.96 38.9799 97.872C40.1079 97.7 41.5799 97.576 43.0759 97.724C44.5799 97.872 45.964 98.284 47.048 99.068C48.08 99.812 48.988 101.004 49.416 103.048L53.724 102.152C53.088 99.096 51.5999 96.928 49.6279 95.5C47.7079 94.112 45.488 93.54 43.512 93.344C41.532 93.148 39.664 93.316 38.316 93.52C37.636 93.624 37.072 93.74 36.672 93.832C36.472 93.88 36.312 93.92 36.196 93.948C36.14 93.964 36.092 93.976 36.06 93.984C36.044 93.988 36.028 93.992 36.02 93.996C36.016 93.996 36.012 94 36.008 94H36.004C36.004 94 36.004 94 36 94C35.988 94.008 35.988 94.008 36.6 96.12ZM39.292 112.076C39.556 113.264 40.732 114.008 41.916 113.748C43.1 113.488 43.8479 112.308 43.5879 111.124L39.292 112.076ZM51.56 102.6V104.8C52.224 104.8 52.848 104.5 53.268 103.988C53.684 103.476 53.852 102.8 53.716 102.152L51.56 102.6ZM35.9879 94.008C34.8199 94.348 34.1479 95.568 34.4879 96.732C34.8279 97.9 36.048 98.572 37.212 98.232L35.9879 94.008Z" fill="#DB9F7F"/>
<path d="M48.8001 46.36C46.2401 46.36 46.2401 50.36 48.8001 50.36C51.4001 50.36 51.4001 46.36 48.8001 46.36Z" fill="#DB9F7F"/>
<path d="M52.2 39.32C49.64 39.32 49.64 43.32 52.2 43.32C54.76 43.32 54.76 39.32 52.2 39.32Z" fill="#DB9F7F"/>
<path d="M56.3599 46.08C53.7999 46.08 53.7999 50.08 56.3599 50.08C58.9199 50.08 58.9199 46.08 56.3599 46.08Z" fill="#DB9F7F"/>
</svg>
