<svg width="200" height="200" viewBox="0 0 200 200" fill="none" xmlns="http://www.w3.org/2000/svg">
<path d="M200 0H0V200H200V0Z" fill="#ADB0D9"/>
<path d="M149.56 54.32C150.32 51.52 152.36 48.84 151.84 46C151.44 43.8 150.52 41.52 150.8 39.24C151 37.56 153.52 32.52 155.72 33.12C156.6 33.36 157.04 34.36 157.32 35.2C158.92 39.8 160.2 43.72 160.72 48.64C161.24 53.6 161.36 58.6 161.16 63.6C161.04 66.68 160.76 69.8 159.52 72.6C158.44 75.08 156.6 77.24 154.36 78.72C153.72 77.32 152.36 76.44 151.36 75.28C149.76 73.48 149 71.12 148.56 68.76C148.56 63.76 148.24 59.28 149.56 54.32Z" fill="#444DF2"/>
<path d="M144.92 100C144.12 96.72 144.44 93.28 144.76 89.92C145.16 85.88 146.36 81.68 148.84 78.72C150.76 76.44 153.48 74.92 157.16 74.84C159.6 74.8 163.12 75.4 164.52 77.6C165.96 79.92 166.32 83.8 166.12 86.4C165.84 89.92 164.4 93.16 163 96.32C161.48 99.8 159.48 107.28 154.84 107.6C150 107.96 146.04 104.52 144.92 100Z" fill="#F5B18F"/>
<path d="M119.16 200H30.1599C30.4799 198.64 30.7999 197.28 31.1199 195.92C37.4799 168.64 39.9599 142.2 40.3199 113.6C62.8399 121.92 86.5199 118.36 109.76 118C118.4 117.88 115.52 127.68 115.6 136.84C115.72 148.28 116.16 159.68 116.84 171.04C117.4 180.72 118.2 190.4 119.16 200Z" fill="#F5B18F"/>
<path d="M158.36 64.8C157.44 76.24 156.04 87.68 155.28 99.16C154.96 104.24 154.76 109.28 154.76 114.36C154.8 130.04 156.68 147.04 148.04 160.12C141.68 169.72 130.44 175.36 119 176.84C110.72 177.92 102.44 176.92 94.36 175.12C81.7599 172.36 68.84 167.32 58.16 159.52C51.6 154.72 45.9199 148.88 41.7199 141.84C37.6799 135.12 35.2799 127.56 34.0399 119.76C33.3999 115.64 33.0799 111.44 33.0399 107.24C32.9599 99.44 33.7599 91.64 34.8799 83.92C36.4799 72.88 38.0399 61.2 44.3199 51.68C50.1999 42.8 58.9199 35.88 68.6399 31.6C84.8799 24.48 103.24 24 120.96 25.08C127.24 25.48 133.56 26.04 139.52 28.04C145.48 30.04 151.08 33.6 154.48 38.84C159.32 46.32 159.08 55.92 158.36 64.8Z" fill="#FEC29B"/>
<path d="M96.5089 104.185C99.7054 103.976 102.009 99.4271 101.655 94.0261C101.3 88.6251 98.4216 84.4168 95.2251 84.6266C92.0286 84.8364 89.7246 89.3849 90.0792 94.7859C90.4337 100.187 93.3124 104.395 96.5089 104.185Z" fill="#1B1464"/>
<path d="M134.155 98.9449C137.351 98.7351 139.655 94.1866 139.301 88.7856C138.946 83.3846 136.067 79.1762 132.871 79.3861C129.674 79.5959 127.37 84.1444 127.725 89.5454C128.079 94.9464 130.958 99.1547 134.155 98.9449Z" fill="#1B1464"/>
<path d="M85.768 76.288C87.656 75.164 90.668 74.112 93.692 73.92C96.732 73.728 99.36 74.416 101.028 76.216L104.256 73.224C101.328 70.064 97.132 69.292 93.412 69.528C89.676 69.764 85.988 71.036 83.516 72.508L85.768 76.288ZM101.028 76.216C101.856 77.108 103.248 77.16 104.136 76.332C105.028 75.504 105.08 74.112 104.252 73.224L101.028 76.216ZM83.512 72.512C82.468 73.136 82.128 74.484 82.748 75.528C83.372 76.572 84.72 76.912 85.764 76.292L83.512 72.512Z" fill="#1B1464"/>
<path d="M133.28 71.52C134.348 73.444 134.344 73.444 134.344 73.444C134.344 73.444 134.348 73.444 134.352 73.44C134.36 73.436 134.38 73.424 134.408 73.412C134.46 73.384 134.548 73.34 134.664 73.284C134.896 73.172 135.244 73.016 135.68 72.844C136.564 72.496 137.772 72.108 139.112 71.912C141.792 71.52 144.688 71.912 146.856 74.588L150.272 71.816C146.76 67.488 142.016 67.044 138.476 67.56C136.708 67.82 135.16 68.32 134.068 68.752C133.516 68.968 133.068 69.172 132.756 69.324C132.596 69.4 132.472 69.464 132.384 69.512C132.34 69.536 132.304 69.556 132.276 69.568C132.264 69.576 132.252 69.58 132.244 69.588C132.24 69.592 132.236 69.592 132.232 69.596C132.232 69.596 132.228 69.596 132.228 69.6C132.216 69.596 132.212 69.596 133.28 71.52ZM146.852 74.588C147.616 75.532 149.004 75.676 149.948 74.912C150.892 74.148 151.036 72.76 150.272 71.816L146.852 74.588ZM132.212 69.596C131.148 70.184 130.764 71.524 131.356 72.588C131.944 73.652 133.284 74.036 134.348 73.444L132.212 69.596Z" fill="#1B1464"/>
<path d="M93.84 138.192C100.64 144.692 110.416 147.904 119.74 146.784L119.216 142.416C111.18 143.38 102.716 140.592 96.876 135.008L93.84 138.192ZM119.74 146.784C120.948 146.64 121.808 145.544 121.664 144.336C121.52 143.128 120.424 142.268 119.216 142.412L119.74 146.784ZM96.88 135.008C96 134.168 94.608 134.2 93.768 135.08C92.928 135.96 92.96 137.352 93.84 138.192L96.88 135.008Z" fill="#1B1464"/>
<path d="M157.96 41.88C154.64 51.84 139.24 53.56 130.44 54.52C117.04 56 105.12 53 92.2401 50C90.5601 49.6 68.8401 44.28 68.8401 44.28C67.7201 55.4 65.2001 65.24 58.4401 74.16C55.5201 78 58.0801 82.8 57.6401 87.84C57.1201 94.28 56.9201 102.12 54.9201 108.28C54.6801 109.08 53.9201 109.76 53.0801 109.64C51.9201 109.48 51.5601 108.08 51.1201 107C50.1201 104.48 47.2801 102.2 44.4801 103.4C41.8401 104.56 40.5201 108.68 39.1601 110.96C37.8801 113.12 35.8801 114.96 35.1601 117.36C34.9201 118.16 34.8401 119 34.4801 119.76C34.1201 120.52 33.4001 121.2 32.5601 121.2C31.9601 121.2 31.4001 120.8 30.9601 120.4C26.6001 116.64 25.8801 111.68 24.4001 106.56C22.7201 100.56 22.0401 94.36 21.4401 88.2C21.0801 84.2 20.7601 80.16 20.2401 76.16C19.8001 72.68 18.8401 69.24 18.8001 65.72C18.6401 54.36 21.0001 42.84 26.5601 33C33.8401 20.2 48.6801 13.44 62.0001 9.92C83.9201 4.16 105.8 7.32 127.12 14.12C135.72 16.88 162.04 29.76 157.96 41.88Z" fill="#444DF2"/>
<path d="M125.88 102.612C124.12 101.012 122.872 100.104 121.94 98.876C121.18 97.868 120.756 96.76 121.052 94.956L116.708 94.244C116.204 97.32 117 99.632 118.428 101.524C119.688 103.192 121.596 104.664 122.92 105.868L125.88 102.612ZM129.68 111.268C129.78 107.968 128.272 104.76 125.872 102.604L122.932 105.876C124.452 107.24 125.34 109.232 125.284 111.132L129.68 111.268ZM108.74 119.064C112.284 121.116 117.164 122.272 121.368 121.436C123.512 121.012 125.58 120.044 127.14 118.296C128.716 116.532 129.596 114.164 129.676 111.26L125.276 111.136C125.216 113.192 124.62 114.508 123.852 115.368C123.072 116.244 121.944 116.836 120.504 117.12C117.548 117.708 113.748 116.884 110.932 115.252L108.74 119.064ZM121.052 94.956C121.248 93.756 120.436 92.624 119.236 92.428C118.036 92.232 116.904 93.044 116.708 94.244L121.052 94.956ZM124.4 104.24L122.92 105.868C122.924 105.872 122.928 105.876 122.932 105.876L124.4 104.24ZM127.48 111.2L125.28 111.132V111.136L127.48 111.2ZM110.94 115.256C109.888 114.648 108.544 115.008 107.932 116.06C107.324 117.112 107.684 118.456 108.736 119.068L110.94 115.256Z" fill="#1B1464"/>
<path d="M46.44 80.76C43.88 77.72 40.32 75.72 35.44 75.6C28.28 75.44 21.4 80.36 18.84 87.04C14.68 97.8 21.64 110.96 31.04 116.48C39.4 121.4 49.2 118.52 51.64 108.8C52.72 104.48 52.28 99.92 51.88 95.52C51.32 90.2 49.72 84.68 46.44 80.76Z" fill="#FEC29B"/>
<path d="M41.92 97.76C42.212 95.58 42.208 95.58 42.208 95.58C42.208 95.58 42.208 95.58 42.204 95.58H42.2C42.196 95.58 42.192 95.58 42.188 95.58C42.176 95.58 42.164 95.576 42.148 95.576C42.116 95.572 42.072 95.568 42.02 95.56C41.912 95.548 41.764 95.532 41.576 95.52C41.204 95.492 40.684 95.46 40.068 95.456C38.848 95.448 37.168 95.544 35.468 95.984C33.784 96.42 31.892 97.244 30.484 98.836C29.016 100.492 28.284 102.74 28.528 105.552L32.912 105.172C32.756 103.384 33.224 102.38 33.78 101.752C34.396 101.056 35.356 100.556 36.572 100.244C37.772 99.932 39.04 99.852 40.048 99.856C40.544 99.86 40.952 99.884 41.236 99.904C41.376 99.916 41.484 99.924 41.552 99.932C41.588 99.936 41.612 99.94 41.624 99.94C41.632 99.94 41.636 99.94 41.636 99.94C41.628 99.94 41.628 99.94 41.92 97.76ZM27.92 89.36C28.248 91.536 28.248 91.536 28.248 91.536C28.248 91.536 28.256 91.536 28.264 91.532C28.28 91.528 28.308 91.528 28.344 91.52C28.42 91.512 28.54 91.496 28.7 91.48C29.016 91.448 29.48 91.416 30.044 91.404C31.18 91.38 32.66 91.452 34.12 91.796C35.588 92.14 36.912 92.732 37.888 93.652C38.816 94.532 39.568 95.836 39.732 97.92L44.12 97.584C43.88 94.472 42.684 92.124 40.912 90.452C39.188 88.824 37.06 87.964 35.132 87.508C33.192 87.052 31.32 86.972 29.96 87C29.272 87.012 28.7 87.056 28.292 87.092C28.088 87.112 27.924 87.132 27.808 87.144C27.748 87.152 27.704 87.156 27.668 87.164C27.652 87.168 27.636 87.168 27.624 87.168C27.62 87.168 27.612 87.168 27.612 87.172H27.608C27.608 87.172 27.608 87.172 27.604 87.172C27.592 87.184 27.592 87.184 27.92 89.36ZM28.528 105.552C28.632 106.764 29.7 107.66 30.912 107.552C32.124 107.448 33.02 106.38 32.912 105.168L28.528 105.552ZM41.92 97.76L41.628 99.94C42.284 100.028 42.948 99.812 43.432 99.356C43.916 98.9 44.164 98.252 44.112 97.588L41.92 97.76ZM27.592 87.184C26.392 87.368 25.564 88.488 25.748 89.688C25.932 90.888 27.052 91.716 28.252 91.532L27.592 87.184Z" fill="#F4AC7D"/>
<path d="M114.5 174.404C97.9322 175.144 78.2842 170.052 64.5802 160.892L62.1362 164.548C76.6722 174.268 97.2642 179.576 114.696 178.796L114.5 174.404ZM64.5842 160.892C63.5722 160.216 62.2082 160.488 61.5322 161.5C60.8562 162.512 61.1282 163.876 62.1402 164.552L64.5842 160.892ZM114.7 178.796C115.912 178.74 116.852 177.712 116.8 176.5C116.748 175.288 115.716 174.348 114.504 174.4L114.7 178.796Z" fill="#1B1464"/>
</svg>
