<svg width="200" height="200" viewBox="0 0 200 200" fill="none" xmlns="http://www.w3.org/2000/svg">
<path d="M200 0H0V200H200V0Z" fill="#444DF2"/>
<path d="M159.92 118.84C161.84 123.24 164.92 127.04 167.28 131.2C169.64 135.36 171.24 140.36 169.92 144.96C171.08 145.24 172 143.92 172.44 142.8C175 135.96 172.24 124.8 169.76 118.16C166.6 109.64 159.8 102.28 159.44 93.2C156.4 101.28 156.4 110.88 159.92 118.84Z" fill="#797EF3"/>
<path d="M154.88 29.48C160.32 36.08 164.56 44.16 164.4 52.72C164.32 55.72 163.72 58.64 163.12 61.56C161.88 67.56 160.64 73.52 159.4 79.52C159.08 81 158.8 82.48 158 83.76C156.16 86.76 151.96 87.72 148.68 86.52C145.4 85.32 142.96 82.32 141.68 79.08C139.68 74.12 139.92 68.44 141.4 63.32C142.88 58.16 145.52 53.44 148.24 48.84C150.28 45.4 152.44 41.92 155.64 39.52L154.88 29.48Z" fill="#797EF3"/>
<path d="M123.56 200H80.6799C80.6399 200 80.6399 200 80.5999 200C73.3599 199.64 66.0399 199.88 58.7599 199.96C57.3199 199.96 55.8799 200 54.3999 200C54.6799 199.04 54.9599 198.12 55.1999 197.2C59.7599 181.4 61.9599 166.08 62.7599 149.88C62.9199 146.76 62.9999 143.6 63.0799 140.44C64.1599 140.76 65.2399 141.04 66.3599 141.32C66.5999 141.4 66.7999 141.44 67.0399 141.48C68.8799 141.92 70.7199 142.32 72.5999 142.6C88.9199 145.4 105.76 143.64 122.36 143.44C128.92 143.36 125.92 156.2 123.32 166.24C123.32 166.28 123.28 166.32 123.28 166.36C122.12 170.72 121.08 174.56 120.92 176.56C120.32 184.44 120.92 192.6 123.56 200Z" fill="#E8C5AA"/>
<path d="M138.2 35.16C134.4 32.44 129.84 30.72 125 29.04C103.48 21.56 76.9201 23.8 60.1601 40.52C53.7601 46.88 49.1601 54.96 46.7201 63.68C44.0801 73.08 45.4401 81.4 46.0401 90.88C46.9601 105.92 49.3201 121.84 59.0801 133.32C75.6001 152.76 101.6 164.96 126.92 166.6C134.8 167.12 143.56 166.08 150.36 161.84C154.44 159.28 157.8 155.36 159.4 150.76C160.48 147.64 160 144.08 160.56 140.8C161.64 134.32 163.88 128.12 164.68 121.6C165.52 114.72 165.36 107.76 164.76 100.88C164.4 96.64 164.28 92.28 163.16 88.16C162.04 84 159.92 80.28 158.64 76.12C156.08 67.76 153.68 58.6 149.72 50.8C146.92 45.32 143.24 38.72 138.2 35.16Z" fill="#F4D3B8"/>
<path d="M129.534 93.9338C132.654 93.2063 134.186 88.3435 132.957 83.0724C131.728 77.8012 128.202 74.1179 125.083 74.8453C121.963 75.5728 120.431 80.4356 121.66 85.7067C122.889 90.9778 126.414 94.6612 129.534 93.9338Z" fill="#1B1464"/>
<path d="M152.844 83.752C155.296 83.18 156.508 79.384 155.552 75.276C154.596 71.168 151.828 68.3 149.376 68.872C146.924 69.444 145.712 73.24 146.672 77.348C147.628 81.456 150.392 84.324 152.844 83.752Z" fill="#1B1464"/>
<path d="M158.352 99.612C158.956 100.336 159.08 101.648 158.212 103.868C157.396 105.956 155.992 108.068 154.944 109.596L158.576 112.08C159.608 110.572 161.288 108.084 162.308 105.468C163.28 102.988 164 99.5 161.728 96.784L158.352 99.612ZM149.92 96.22C151.572 97.024 153.716 97.484 155.088 97.896C156.672 98.368 157.712 98.864 158.376 99.636L161.712 96.768C160.176 94.98 158.076 94.196 156.348 93.68C154.408 93.1 153.072 92.86 151.844 92.264L149.92 96.22ZM140.704 84.08C141.504 89.544 145.204 93.908 149.912 96.216L151.848 92.264C148.236 90.492 145.616 87.256 145.056 83.44L140.704 84.08ZM154.944 109.596C154.256 110.6 154.516 111.968 155.516 112.652C156.516 113.336 157.888 113.08 158.572 112.08L154.944 109.596ZM160.04 98.2L161.728 96.788C161.72 96.78 161.716 96.772 161.708 96.768L160.04 98.2ZM150.88 94.24L149.912 96.216C149.916 96.216 149.916 96.22 149.92 96.22L150.88 94.24ZM145.056 83.44C144.88 82.236 143.764 81.408 142.56 81.584C141.356 81.76 140.528 82.876 140.704 84.08L145.056 83.44Z" fill="#1B1464"/>
<path d="M132.16 129.796C138.664 129.324 146.544 128.7 152.26 123.884L149.424 120.52C144.98 124.264 138.62 124.92 131.844 125.408L132.16 129.796ZM121.604 129.508C125.212 130.308 128.896 130.032 132.16 129.796L131.844 125.408C128.468 125.652 125.432 125.852 122.56 125.216L121.604 129.508ZM150.52 132.088C141.512 135.808 130.184 133.164 123.724 125.9L120.436 128.824C128.136 137.48 141.448 140.596 152.2 136.156L150.52 132.088ZM152.256 123.884C153.184 123.1 153.304 121.712 152.52 120.784C151.736 119.856 150.348 119.736 149.42 120.52L152.256 123.884ZM122.08 127.36L122.556 125.212C121.624 125.004 120.664 125.424 120.18 126.244C119.696 127.068 119.8 128.108 120.432 128.82L122.08 127.36ZM152.2 136.152C153.324 135.688 153.856 134.4 153.392 133.28C152.928 132.156 151.64 131.624 150.52 132.088L152.2 136.152Z" fill="#1B1464"/>
<path d="M114.884 66.8C111.232 68.472 107.684 71.372 106.008 75.396L110.068 77.088C111.192 74.388 113.724 72.168 116.712 70.804L114.884 66.8ZM129.192 65.044C124.108 64.028 119.68 64.62 114.892 66.8L116.712 70.804C120.72 68.98 124.212 68.536 128.332 69.36L129.192 65.044ZM106.008 75.392C105.54 76.512 106.072 77.8 107.192 78.268C108.312 78.736 109.6 78.204 110.068 77.084L106.008 75.392ZM115.8 68.8L114.888 66.796C114.888 66.796 114.884 66.796 114.884 66.8L115.8 68.8ZM128.328 69.356C129.52 69.596 130.68 68.82 130.916 67.632C131.156 66.44 130.38 65.28 129.192 65.044L128.328 69.356Z" fill="#1B1464"/>
<path d="M144.36 61.04C145 63.144 145 63.144 144.996 63.144C144.996 63.144 144.996 63.144 145 63.144C145.004 63.144 145.016 63.14 145.028 63.136C145.056 63.128 145.108 63.112 145.176 63.096C145.312 63.06 145.516 63.012 145.78 62.956C146.308 62.844 147.052 62.72 147.892 62.664C149.644 62.544 151.48 62.748 152.812 63.608L155.2 59.912C152.688 58.292 149.704 58.132 147.6 58.276C146.512 58.348 145.56 58.508 144.884 58.652C144.544 58.724 144.268 58.792 144.068 58.84C143.968 58.864 143.892 58.888 143.832 58.904C143.804 58.912 143.78 58.92 143.764 58.924C143.756 58.928 143.748 58.928 143.74 58.932C143.736 58.932 143.736 58.932 143.732 58.936H143.728C143.72 58.936 143.72 58.936 144.36 61.04ZM152.808 63.608C153.828 64.268 155.192 63.976 155.848 62.952C156.504 61.928 156.216 60.568 155.192 59.912L152.808 63.608ZM143.72 58.936C142.556 59.288 141.9 60.516 142.252 61.68C142.604 62.844 143.832 63.5 144.996 63.148L143.72 58.936Z" fill="#1B1464"/>
<path d="M123.12 45.68C123.84 46.6 124.6 47.52 125.36 48.4C130.72 54.6 137.92 54.36 145.6 55.16C151.32 55.72 157.44 57.24 160.96 61.8C163.84 65.56 164.32 70.72 163.6 75.4C163.32 77.36 162.84 79.28 162.64 81.24C162 87.52 164.32 93.92 168.4 98.68C172.48 103.48 178.28 106.68 184.36 108.16C181.16 105.28 177.92 102.36 175.52 98.72C172.8 94.56 171.32 89.64 171.36 84.68C171.4 79.6 172.96 74.64 174 69.68C176.32 58.6 175.6 47 172.48 36.16C169.88 27.2 165.4 14.88 157.04 9.72002C150.16 5.44002 142.68 3.28002 134.48 3.92002C127.52 4.48002 120.52 7.72002 116.56 13.52C109.76 23.48 116.56 37.24 123.12 45.68Z" fill="#797EF3"/>
<path d="M121 27.76C120.4 28.2 119.8 28.6 119.2 29C118.4 29.52 117.6 30.04 116.8 30.52C116.28 30.84 115.76 31.16 115.24 31.48C107.2 36.6 99.12 41.72 91.8 47.84C87.16 51.72 82.84 55.92 78.6 60.2C76.68 62.12 74.2 63.88 72.48 65.92C70.8 67.92 70.84 70.04 70.56 72.64C70.52 73.04 70.48 73.48 70.4 73.88C68.88 86.96 67.36 100.04 65.8 113.08C64.68 122.52 65.64 131.64 66.28 140.76C66.28 140.92 66.32 141.08 66.32 141.24C66.64 146.28 66.88 151.32 66.6 156.48C66.52 157.96 66.4 159.44 66.2 160.92C65.56 166.44 64.88 171.92 64.24 177.44C63.4 184.56 62.52 191.84 59.52 198.36C59.28 198.88 59 199.44 58.72 199.96H20.8C19.88 199.16 19.04 198.36 18.44 197.4C16.08 193.56 17.24 186.6 18.68 182.68C20.24 178.56 22.96 174.96 24.84 171C26.72 167 27.64 162.12 25.52 158.28C24.6 156.6 23.2 155.28 22.04 153.76C16.88 146.72 18.64 136.92 21.16 128.56C23.68 120.2 26.76 111.16 23.64 103C22.16 99.16 19.4 95.92 17.68 92.16C13 81.84 17 69.52 23.32 60.12C25.92 56.24 28.92 52.56 30.6 48.2C32.44 43.44 32.56 38.2 33.32 33.16C34.08 28.12 35.76 22.84 39.8 19.68C43.12 17.08 47.36 16.44 51.24 15.04C55.2 13.6 58.44 11.16 62 8.99999C70.28 3.99999 79.72 1.23999 89.4 1.07999C96.48 0.999993 103.56 2.19999 110.28 4.35999C114.52 5.71999 117.12 7.43999 119.6 9.95999C120.88 11.28 122.16 12.84 123.6 14.64C124.68 16 125.76 17.4 126.08 19.08C126.72 22.64 124 25.56 121 27.76Z" fill="#797EF3"/>
<path d="M54.0801 80.76C51.5201 77.72 47.9601 75.72 43.0801 75.6C35.9201 75.44 29.0401 80.36 26.4801 87.04C22.3201 97.8 29.2801 110.96 38.6801 116.48C47.0401 121.4 56.8401 118.52 59.2801 108.8C60.3601 104.48 59.9201 99.92 59.5201 95.52C58.9601 90.2 57.3601 84.68 54.0801 80.76Z" fill="#F4D3B8"/>
<path d="M49.5999 97.76C49.8919 95.58 49.8879 95.58 49.8879 95.58C49.8879 95.58 49.8879 95.58 49.8839 95.58H49.8799C49.8759 95.58 49.8719 95.58 49.8679 95.58C49.8559 95.58 49.8439 95.576 49.8279 95.576C49.7959 95.572 49.7519 95.568 49.6999 95.56C49.5919 95.548 49.4439 95.532 49.2559 95.52C48.8839 95.492 48.3639 95.46 47.7479 95.456C46.5279 95.448 44.8479 95.544 43.1479 95.984C41.4639 96.42 39.5719 97.244 38.1639 98.836C36.6959 100.492 35.9639 102.74 36.2079 105.552L40.5919 105.172C40.4359 103.384 40.9039 102.38 41.4599 101.752C42.0759 101.056 43.0359 100.556 44.2519 100.244C45.4519 99.932 46.7199 99.852 47.7279 99.856C48.2239 99.86 48.6319 99.884 48.9159 99.904C49.0559 99.916 49.1639 99.924 49.2319 99.932C49.2679 99.936 49.2919 99.94 49.3039 99.94C49.3119 99.94 49.3159 99.94 49.3159 99.94C49.3079 99.94 49.3079 99.94 49.5999 97.76ZM35.5999 89.36C35.9279 91.536 35.9279 91.536 35.9279 91.536C35.9279 91.536 35.9359 91.536 35.9439 91.532C35.9599 91.528 35.9879 91.528 36.0239 91.52C36.0999 91.512 36.2199 91.496 36.3799 91.48C36.6959 91.448 37.1599 91.416 37.7239 91.404C38.8599 91.38 40.3399 91.452 41.7999 91.796C43.2679 92.14 44.5919 92.732 45.5679 93.652C46.4959 94.532 47.2479 95.836 47.4119 97.92L51.7999 97.584C51.5599 94.472 50.3639 92.124 48.5919 90.452C46.8679 88.824 44.7399 87.964 42.8119 87.508C40.8719 87.052 38.9999 86.972 37.6399 87C36.9519 87.012 36.3799 87.056 35.9719 87.092C35.7679 87.112 35.6039 87.132 35.4879 87.144C35.4279 87.152 35.3839 87.156 35.3479 87.164C35.3319 87.168 35.3159 87.168 35.3039 87.168C35.2999 87.168 35.2919 87.168 35.2919 87.172H35.2879C35.2879 87.172 35.2879 87.172 35.2839 87.172C35.2719 87.184 35.2719 87.184 35.5999 89.36ZM36.2079 105.552C36.3119 106.764 37.3799 107.66 38.5919 107.552C39.8039 107.448 40.6999 106.38 40.5919 105.168L36.2079 105.552ZM49.5999 97.76L49.3079 99.94C49.9639 100.028 50.6279 99.812 51.1119 99.356C51.5959 98.9 51.8439 98.252 51.7919 97.588L49.5999 97.76ZM35.2719 87.184C34.0719 87.368 33.2439 88.488 33.4279 89.688C33.6119 90.888 34.7319 91.716 35.9319 91.532L35.2719 87.184Z" fill="#EABC97"/>
<path d="M59.3201 54.76C61.7601 47.92 65.8401 41.44 70.0001 35.6C74.0401 29.88 79.5201 25.2 85.8001 22.08C91.6801 19.2 98.4801 17.68 104.8 19.36C115.12 22.12 121.4 35 116.24 44.76C114.2 48.64 110.32 51.16 106.72 53.6C95.1601 61.52 83.8401 71.68 80.8801 85.36C79.0401 93.8 80.6801 102.56 79.3201 111.04C78.2401 117.56 75.2001 123.08 73.2801 129.2C71.2401 135.52 72.3201 142.96 74.2001 149.2C76.3201 156.2 79.8001 162.64 83.2001 169.12C85.7201 173.92 88.1601 180 85.0401 184.44C86.5601 180.36 84.8801 175.68 82.1601 172.28C79.4401 168.88 75.8001 166.36 72.6001 163.4C65.2001 156.48 60.3601 146.92 58.9601 136.92C58.3601 132.76 57.8801 128.28 57.6001 124.04C57.2801 118.96 59.4001 113.92 59.9601 108.88C61.0001 99.36 56.5601 92.04 55.7201 83.2C54.8401 73.92 56.1601 63.64 59.3201 54.76Z" fill="#797EF3"/>
<path d="M121.4 166.6C121.4 164.4 121.4 164.4 121.4 164.4C121.396 164.4 121.392 164.4 121.38 164.4C121.36 164.4 121.328 164.4 121.28 164.4C121.188 164.396 121.044 164.392 120.848 164.384C120.46 164.368 119.876 164.332 119.112 164.256C117.588 164.112 115.36 163.816 112.608 163.224C107.1 162.04 99.5001 159.66 91.2121 154.892L89.0201 158.708C97.7681 163.74 105.812 166.264 111.684 167.528C114.62 168.16 117.02 168.48 118.696 168.64C119.536 168.72 120.196 168.76 120.652 168.78C120.88 168.792 121.06 168.796 121.184 168.8C121.248 168.8 121.296 168.804 121.332 168.804C121.348 168.804 121.364 168.804 121.376 168.804C121.38 168.804 121.388 168.804 121.388 168.804H121.392C121.4 168.8 121.4 168.8 121.4 166.6ZM91.2161 154.892C90.1641 154.288 88.8161 154.648 88.2121 155.704C87.6081 156.76 87.9681 158.104 89.0241 158.708L91.2161 154.892ZM121.4 168.8C122.616 168.8 123.6 167.816 123.6 166.6C123.6 165.384 122.616 164.4 121.4 164.4V168.8Z" fill="#1B1464"/>
</svg>
