<svg width="200" height="200" viewBox="0 0 200 200" fill="none" xmlns="http://www.w3.org/2000/svg">
<path d="M200 0H0V200H200V0Z" fill="#ADB0D9"/>
<path d="M122.764 200H33.756C34.072 199.06 34.396 198.124 34.712 197.188C41.064 178.368 43.54 160.148 43.904 140.42C66.44 146.156 90.108 143.696 113.36 143.456C122.012 143.368 119.104 150.14 119.216 156.44C119.352 164.316 119.76 172.188 120.44 180.036C121.016 186.712 121.792 193.372 122.764 200Z" fill="#ADB0D9"/>
<path d="M122.764 200H33.756C34.072 199.06 34.396 198.124 34.712 197.188C41.064 178.368 43.54 160.148 43.904 140.42C66.44 146.156 90.108 143.696 113.36 143.456C122.012 143.368 119.104 150.14 119.216 156.44C119.352 164.316 119.76 172.188 120.44 180.036C121.016 186.712 121.792 193.372 122.764 200Z" fill="#E8AE8E"/>
<path d="M59.64 156.528C59.784 156.7 59.932 156.872 60.076 157.04C61.932 159.224 63.8 161.42 65.984 163.28C77.372 172.968 95.096 174.08 109.124 176.816C117.644 178.476 126.172 178.76 134.568 176.188C144.248 173.22 152.932 166.676 157.796 157.796C163.852 146.732 163.608 133.428 163.208 120.82C162.98 113.664 162.752 106.512 162.524 99.356C162.38 94.868 162.24 90.376 162.468 85.892C163.028 74.84 165.916 63.504 163.532 52.488C161.552 43.344 153.904 33.8 145.368 29.924C131.896 23.808 115.756 22.196 101.18 23.844C90.632 25.036 79.9 26.3 70.204 30.608C61.492 34.48 50.2 39.42 45.548 48.064C39.648 59.024 36.292 71.696 34.864 84.008C33.684 94.184 33.896 104.524 35.508 114.644C37.032 124.216 39.58 132.924 45.908 140.368C50.48 145.756 55.06 151.14 59.64 156.528Z" fill="#F4C19F"/>
<path d="M122.932 125.42C121.74 125.42 120.76 124.468 120.732 123.272C120.704 122.056 121.664 121.048 122.88 121.02C128.364 120.892 130.552 119.304 134.276 115.88C130.02 106.372 127.516 96.284 126.824 85.868C126.744 84.656 127.66 83.608 128.872 83.528C130.076 83.452 131.132 84.364 131.212 85.576C131.892 95.832 134.56 106.172 138.928 115.476C139.336 116.34 139.136 117.368 138.436 118.02C133.34 122.764 130.34 125.248 122.98 125.416C122.968 125.42 122.952 125.42 122.932 125.42Z" fill="#1B1464"/>
<path d="M105.274 104.169C108.482 103.959 110.795 99.4151 110.441 94.0207C110.087 88.6263 107.199 84.424 103.992 84.6345C100.784 84.845 98.471 89.3887 98.8251 94.7831C99.1792 100.178 102.066 104.38 105.274 104.169Z" fill="#1B1464"/>
<path d="M149.716 102.921C152.924 102.71 155.237 98.1667 154.883 92.7723C154.529 87.3779 151.642 83.1756 148.434 83.3861C145.226 83.5966 142.913 88.1403 143.267 93.5347C143.621 98.9292 146.509 103.132 149.716 102.921Z" fill="#1B1464"/>
<path d="M159.72 84.74C159.096 84.74 158.472 84.476 158.04 83.96C150.288 74.792 141.176 74.972 141.088 74.968C139.86 75.012 138.86 74.052 138.82 72.836C138.78 71.62 139.736 70.608 140.952 70.568C141.408 70.556 152.292 70.34 161.404 81.116C162.188 82.044 162.072 83.432 161.144 84.216C160.724 84.568 160.22 84.74 159.72 84.74Z" fill="#1B1464"/>
<path d="M84.3359 88.364C84.1839 88.364 84.0319 88.348 83.8759 88.316C82.6879 88.068 81.9279 86.884 82.1759 85.696C82.2719 85.232 84.82 74.22 107.308 67.96C108.48 67.636 109.692 68.32 110.016 69.488C110.34 70.66 109.656 71.872 108.488 72.196C88.8959 77.652 86.4999 86.54 86.4759 86.628C86.2559 87.668 85.3519 88.364 84.3359 88.364Z" fill="#1B1464"/>
<path d="M123.388 148.052C121.648 148.052 119.84 147.796 118.024 147.276C113.796 146.064 110.012 143.652 106.676 141.524C105.652 140.872 105.352 139.508 106.004 138.488C106.656 137.464 108.016 137.164 109.04 137.816C112.272 139.88 115.616 142.016 119.228 143.048C122.976 144.12 126.568 143.768 129.084 142.084C130.092 141.408 131.46 141.68 132.136 142.688C132.812 143.696 132.54 145.064 131.532 145.74C129.252 147.268 126.428 148.052 123.388 148.052Z" fill="#1B1464"/>
<path d="M43.544 120.856C42.02 114.128 43.704 106.52 44.036 99.664C44.08 98.796 44.156 97.84 44.732 97.228C45.9 95.984 47.808 97.096 49.384 97.616C52.304 98.576 55.58 97.032 57.512 94.508C59.792 91.532 60.452 87.508 60.552 83.664C60.608 81.488 60.432 79.632 59.58 77.684C59.064 76.512 57.932 73.176 56.676 72.74C61.824 74.516 68.072 74.22 71.9 70.148C73.044 68.932 73.908 67.448 74.644 65.916C76.6 61.836 78.524 54.592 74.832 51.016C78.396 54.604 83.488 57.196 88.472 55.964C93.556 54.704 97.416 48.196 94.968 43.284C97.508 48.648 100.684 54.576 106.156 56.012C112.244 57.612 118.92 51.42 118.272 44.772C120.952 51.508 125.06 58.236 131.492 60.796C137.92 63.356 146.732 59.508 147.392 52.224C147.216 54.136 146.464 56.18 146.56 58.08C146.92 65.16 153.3 70.608 158.648 73.752C163.768 76.76 169.78 80.092 175.924 79.064C181.736 78.096 184.616 73.2 185.472 67.332C186.032 63.488 185.784 59.14 183.264 56.324C180.432 60.78 175.168 63.328 170.156 62.676C173.04 60.976 175.188 57.516 174.704 54.044C174.128 49.872 170.092 48.236 166.748 49.036C170.076 44.772 174.452 41.6 174.204 35.272C173.928 28.252 168.272 21.096 162.724 17.944C159.832 16.3 156.444 15.348 153.252 16.136C150.06 16.924 147.192 19.772 146.94 23.256C146.104 16.416 141.74 10.46 136.292 6.744C130.844 3.028 124.396 1.308 117.98 0.412001C113.876 -0.163999 109.512 -0.383999 105.792 1.548C102.072 3.48 99.34 8.22 100.756 12.364C95.968 4.872 87.356 0.876001 78.868 0.312001C70.38 -0.251999 61.964 2.228 54.028 5.492C51.008 6.736 47.864 8.236 46.048 11.092C42.124 17.268 46.424 25.488 50.908 31.208C48.236 25.336 41.04 23.984 34.92 23.852C28.54 23.716 20.892 24.944 18.22 31.12C15.32 37.816 20.328 45.184 24.996 50.62C18.096 47.536 9.15201 53.504 8.74001 61.468C8.32801 69.432 16.6 76.416 23.78 74.156C22.04 71.8 18.164 72.72 16.624 75.232C15.084 77.74 15.3 81.028 15.94 83.948C16.976 88.696 18.988 93.2 21.788 97.056C23.944 100.024 28.704 102.404 30.464 99.152C25.376 99.648 20.764 103.724 19.364 108.964C17.964 114.2 19.872 120.26 23.952 123.536C25.764 124.992 28.104 125.932 30.308 125.364C32.512 124.796 34.336 122.34 33.78 119.996C31.568 119.008 28.932 120.888 28.196 123.32C27.46 125.752 28.16 128.42 29.188 130.728C31.04 134.892 33.984 138.492 37.596 141.02C38.416 141.592 39.352 142.132 40.32 141.984C41.796 141.76 42.644 140.1 43.14 138.604C45.116 132.66 44.892 126.864 43.544 120.856Z" fill="#444DF2"/>
<path d="M46.432 80.78C43.876 77.76 40.304 75.748 35.428 75.636C28.264 75.472 21.404 80.408 18.812 87.092C14.64 97.856 21.616 110.992 31.02 116.544C39.372 121.472 49.176 118.6 51.612 108.852C52.692 104.528 52.268 99.992 51.832 95.556C51.312 90.212 49.712 84.66 46.432 80.78Z" fill="#F4C19F"/>
<path d="M30.7319 107.548C29.6039 107.548 28.644 106.684 28.544 105.54C28.22 101.812 29.68 99.572 30.96 98.348C33.292 96.12 36.696 95.54 39.164 95.448C38.792 94.604 38.248 93.9 37.524 93.324C34.236 90.708 28.324 91.516 28.264 91.524C27.064 91.712 25.94 90.88 25.76 89.68C25.576 88.48 26.404 87.356 27.604 87.176C27.92 87.128 35.432 86.044 40.26 89.88C42.572 91.72 43.8759 94.312 44.1279 97.58C44.1799 98.24 43.928 98.892 43.448 99.348C42.964 99.804 42.304 100.016 41.644 99.932C40.18 99.744 35.944 99.664 33.992 101.536C33.136 102.36 32.7879 103.544 32.9279 105.16C33.0319 106.372 32.1359 107.436 30.9279 107.544C30.8599 107.544 30.7959 107.548 30.7319 107.548Z" fill="#EAAA7F"/>
<path d="M117.776 179.128C117.156 179.128 106.828 179.072 93.5921 175.644C81.1921 172.432 63.8561 165.512 51.7041 150.8C50.9321 149.864 51.0641 148.476 52.0001 147.704C52.9361 146.932 54.3241 147.064 55.0961 148C66.4721 161.772 82.848 168.3 94.58 171.356C107.408 174.696 117.656 174.728 117.784 174.728C119 174.728 119.984 175.712 119.984 176.924C119.984 178.14 119.004 179.124 117.788 179.128C117.788 179.128 117.784 179.128 117.776 179.128Z" fill="#1B1464"/>
</svg>
