<svg width="200" height="200" viewBox="0 0 200 200" fill="none" xmlns="http://www.w3.org/2000/svg">
<path d="M200 0H0V200H200V0Z" fill="#797EF3"/>
<path d="M123.964 200H50.516C52.296 193.476 53.74 187.696 54.008 186.484C56.348 175.76 57.828 164.88 58.42 153.964C58.728 148.304 58.8 142.632 58.632 136.968C58.516 133.044 56.728 126.772 58.508 123.032C61.916 115.86 77.76 124.28 84.796 125.196C96.88 126.772 109.168 126.032 121.292 125.296C119.448 150.196 120.352 175.26 123.964 200Z" fill="#797EF3"/>
<path d="M175.06 111.956C176.192 117.08 178.368 122.048 178.408 127.3C177.32 127.564 176.308 126.696 175.56 125.864C167.652 117.052 165.14 104.752 163.48 93.028C162.456 85.788 159.828 73.764 163.26 66.908C165.008 63.416 171.336 59.356 174.952 62.716C179.228 66.696 175.78 80.728 175.212 85.836C174.248 94.5 173.152 103.332 175.06 111.956Z" fill="#444DF2"/>
<path d="M112.688 13.376C109.316 11.46 105.816 9.76801 102.188 8.34401C86.6959 2.27201 68.4999 1.65601 53.8279 9.51601C40.9199 16.432 31.8799 29.228 27.0119 43.04C22.1439 56.852 21.0719 71.704 20.9959 86.344C20.8999 104.144 22.2159 121.932 24.4079 139.592C25.8079 150.888 29.3039 179.928 44.4199 180.528C62.9759 181.26 81.5999 180.34 99.9959 177.796C115.664 175.632 141.48 187.56 154 176.8C161.476 170.372 158.748 147.272 161.956 137.948C165.856 126.62 168.764 114.84 169.112 102.864C169.572 87.076 165.464 71.176 157.412 57.588C153.128 50.36 147.78 43.808 142.076 37.64C133.424 28.288 123.716 19.64 112.688 13.376Z" fill="#444DF2"/>
<path d="M123.964 200H50.516C52.296 193.476 53.74 187.696 54.008 186.484C56.348 175.76 57.828 164.88 58.42 153.964C58.728 148.304 58.8 142.632 58.632 136.968C58.516 133.044 56.728 126.772 58.508 123.032C61.916 115.86 77.76 124.28 84.796 125.196C96.88 126.772 109.168 126.032 121.292 125.296C119.448 150.196 120.352 175.26 123.964 200Z" fill="#E8AE8E"/>
<path d="M59.4919 149.676C71.7159 162.804 88.5479 171.128 106.616 175.792C123.816 180.232 144.068 180.756 157.236 168.832C168.3 158.816 171.316 142.784 172.452 127.9C173.812 110.068 173.38 92.148 172.6 74.284C172.26 66.516 171.848 58.696 169.984 51.152C167.164 39.744 160.12 24.584 148.968 19.52C135.496 13.404 119.356 11.792 104.78 13.44C94.2319 14.632 83.4999 15.896 73.8039 20.204C65.0919 24.076 53.7999 29.016 49.1479 37.66C43.2479 48.62 39.8919 61.292 38.4639 73.604C36.2959 92.276 38.8279 111.548 46.0879 128.908C49.4119 136.88 53.9839 143.764 59.4919 149.676Z" fill="#F4C19F"/>
<path d="M49.232 76.78C46.676 73.76 43.104 71.748 38.228 71.636C31.064 71.472 24.204 76.408 21.612 83.092C17.44 93.856 24.416 106.992 33.82 112.544C42.172 117.472 51.976 114.6 54.412 104.852C55.492 100.528 55.068 95.992 54.632 91.556C54.112 86.212 52.512 80.66 49.232 76.78Z" fill="#F4C19F"/>
<path d="M33.5318 103.548C32.4038 103.548 31.4438 102.684 31.3438 101.54C31.0198 97.812 32.4798 95.572 33.7598 94.348C36.0918 92.12 39.4958 91.54 41.9638 91.448C41.5918 90.604 41.0478 89.9 40.3238 89.324C37.0358 86.708 31.1238 87.516 31.0638 87.524C29.8638 87.708 28.7398 86.88 28.5598 85.68C28.3758 84.48 29.2038 83.356 30.4038 83.176C30.7198 83.128 38.2318 82.044 43.0598 85.88C45.3718 87.72 46.6758 90.312 46.9278 93.58C46.9798 94.24 46.7278 94.892 46.2478 95.348C45.7638 95.804 45.1038 96.016 44.4438 95.932C42.9798 95.744 38.7438 95.664 36.7918 97.536C35.9358 98.36 35.5878 99.544 35.7278 101.16C35.8318 102.372 34.9358 103.436 33.7278 103.544C33.6598 103.544 33.5958 103.548 33.5318 103.548Z" fill="#EAAA7F"/>
<path d="M85.3759 66.6641C85.3639 66.6801 85.3559 66.6961 85.3439 66.7121C84.0239 68.6441 79.3559 68.4521 77.3399 68.7081C75.6639 68.9201 51.896 71.0241 51.784 69.9081C52.692 79.1681 53.6 88.4321 54.508 97.6921C55.66 109.46 56.6399 122.1 50.7679 132.364C52.9159 116.712 50.0999 100.416 42.8239 86.3921C40.5079 81.9241 37.712 77.5801 36.728 72.6441C35.884 68.3961 36.4479 63.9961 37.3439 59.7601C39.5839 49.2081 43.9079 39.1041 49.9959 30.2001C61.1759 13.8561 81.4639 5.51207 100.724 4.14407C109.284 3.53607 117.892 3.62407 126.436 4.40807C138.676 5.53207 152.616 9.51607 160.696 19.3921C165.452 25.2081 168.496 32.2001 171.48 39.0961C172.16 40.6681 181.624 69.6241 179.228 69.1001C174.356 68.0401 169.488 66.9801 164.616 65.9201C159.388 64.7841 154.156 63.6441 148.852 62.9441C138.016 61.5161 127.06 61.9561 116.204 62.9081C113.36 63.1561 95.628 67.2081 94.212 63.1241C91.868 56.3641 89.52 49.6041 87.1759 42.8441C86.792 41.7401 85.18 40.5641 84.808 41.6721C84.816 46.3161 87.6399 63.1641 85.3759 66.6641Z" fill="#444DF2"/>
<path d="M126.532 125.42C125.32 125.42 124.336 124.44 124.332 123.228C124.328 122.012 125.308 121.024 126.52 121.02C126.664 121.02 140.72 120.844 141.52 113.052C141.836 109.956 140.908 108.88 139.224 106.932C136.456 103.732 132.668 99.348 132.92 85.156C132.94 83.956 133.92 82.996 135.12 82.996C135.132 82.996 135.148 82.996 135.16 82.996C136.376 83.016 137.344 84.02 137.32 85.236C137.096 97.748 140.12 101.244 142.552 104.056C144.448 106.248 146.408 108.52 145.896 113.504C144.692 125.216 127.28 125.42 126.54 125.424C126.54 125.42 126.536 125.42 126.532 125.42Z" fill="#1B1464"/>
<path d="M108.864 104.17C112.072 103.96 114.385 99.4161 114.031 94.0217C113.677 88.6273 110.79 84.4249 107.582 84.6355C104.374 84.846 102.061 89.3897 102.415 94.7841C102.769 100.179 105.657 104.381 108.864 104.17Z" fill="#1B1464"/>
<path d="M153.307 102.922C156.514 102.711 158.827 98.1678 158.473 92.7734C158.119 87.379 155.232 83.1766 152.024 83.3871C148.817 83.5977 146.504 88.1414 146.858 93.5358C147.212 98.9302 150.099 103.133 153.307 102.922Z" fill="#1B1464"/>
<path d="M164.256 82.404C163.804 82.404 163.352 82.268 162.96 81.98C153.356 74.96 144.72 77.144 144.356 77.24C143.184 77.552 141.98 76.86 141.664 75.688C141.348 74.52 142.032 73.316 143.196 72.992C143.64 72.872 154.164 70.1 165.556 78.424C166.536 79.14 166.752 80.516 166.036 81.5C165.604 82.092 164.936 82.404 164.256 82.404Z" fill="#1B1464"/>
<path d="M86.1679 84.792C85.8239 84.792 85.4719 84.712 85.1439 84.536C84.0679 83.968 83.6559 82.64 84.2239 81.564C84.4439 81.148 89.832 71.432 112.66 71.432C112.86 71.432 113.06 71.432 113.264 71.436C114.48 71.444 115.456 72.436 115.448 73.652C115.44 74.86 114.456 75.836 113.248 75.836C113.244 75.836 113.236 75.836 113.232 75.836C92.88 75.688 88.1559 83.536 88.1159 83.616C87.7239 84.364 86.9599 84.792 86.1679 84.792Z" fill="#1B1464"/>
<path d="M122.872 144.084C105.46 144.084 93.876 129.984 93.356 129.344C92.592 128.4 92.74 127.012 93.688 126.252C94.632 125.488 96.016 125.636 96.78 126.584C96.96 126.804 109.18 141.56 126.268 139.48C127.476 139.336 128.572 140.192 128.716 141.4C128.864 142.604 128.004 143.704 126.796 143.848C125.46 144.008 124.148 144.084 122.872 144.084Z" fill="#1B1464"/>
<path d="M120.324 180.4C94.6799 180.4 68.4959 160.788 67.3959 159.952C66.4279 159.22 66.2359 157.84 66.9719 156.872C67.7039 155.904 69.0839 155.712 70.0559 156.444C70.3159 156.64 96.1759 175.996 120.328 175.996C121.544 175.996 122.528 176.98 122.528 178.196C122.528 179.412 121.54 180.4 120.324 180.4Z" fill="#1B1464"/>
</svg>
