<svg width="200" height="200" viewBox="0 0 200 200" fill="none" xmlns="http://www.w3.org/2000/svg">
<path d="M200 0.00457764H0V200H200V0.00457764Z" fill="#444DF2"/>
<path d="M117.66 166.281C116.272 177.421 114.94 188.74 114.496 200H21.1479C22.3759 198.116 23.8319 196.124 25.4639 193.952C33.4759 183.308 39.9679 171.525 44.7159 159.077C47.0879 152.857 49.0279 146.465 50.4959 139.969C51.5199 135.461 54.9359 125.674 53.4039 121.23C54.2799 123.774 55.5159 126.126 57.0319 128.298C61.8279 135.165 69.4319 140.169 77.3359 143.329C87.7399 147.485 98.9639 149.089 109.732 152.181C111.984 152.829 114.328 153.613 115.9 155.353C118.452 158.185 118.132 162.497 117.66 166.281Z" fill="#444DF2"/>
<path d="M117.66 166.281C116.272 177.421 114.94 188.74 114.496 200H21.1479C22.3759 198.116 23.8319 196.124 25.4639 193.952C33.4759 183.308 39.9679 171.525 44.7159 159.077C47.0879 152.857 49.0279 146.465 50.4959 139.969C51.5199 135.461 54.9359 125.674 53.4039 121.23C54.2799 123.774 55.5159 126.126 57.0319 128.298C61.8279 135.165 69.4319 140.169 77.3359 143.329C87.7399 147.485 98.9639 149.089 109.732 152.181C111.984 152.829 114.328 153.613 115.9 155.353C118.452 158.185 118.132 162.497 117.66 166.281Z" fill="#EAAA7F"/>
<path d="M42.348 72.8149C42.22 64.0631 43.148 55.1993 47.192 47.3395C54.128 33.8478 69.344 25.484 84.804 22.5561C100.268 19.6282 116.168 21.3401 131.74 23.1801C141.096 24.2881 155.048 25.976 160.068 34.5478C166.704 45.8676 167.348 62.2072 168.668 74.8749C169.988 87.5426 171.6 100.178 172.864 112.854C173.972 123.97 173.544 135.769 169.048 146.337C163.676 158.969 151.916 169.241 137.972 172.637C118.136 177.465 91.048 171.181 78.284 156.129C68.912 145.077 58.408 133.03 52.204 120.062C45.824 106.726 43.228 91.9585 42.5 77.3428C42.424 75.8389 42.368 74.3269 42.348 72.8149Z" fill="#F7C9A4"/>
<path d="M56.604 126.91C53.76 127.23 50.968 126.958 48.412 125.63C45.284 124.006 43.104 121.05 41.1 118.154C29.872 101.95 21.292 82.4587 19.524 62.6432C18.848 55.0473 20.62 46.8755 25.956 41.4236C27.316 40.0357 28.892 38.8317 29.972 37.2157C31.396 35.0878 31.82 32.4679 32.732 30.0719C35.736 22.1641 43.696 16.5802 51.368 13.0243C86.668 -3.33532 130.184 -5.79127 163.456 14.3803C166.28 16.0922 169.072 18.8082 171.024 21.4681C179.224 32.6479 171.228 48.2435 161.008 54.3874C146.468 63.1312 131.332 66.7471 114.36 64.7871C100.112 63.1392 86.44 58.3793 72.9 53.6474C78.192 66.5871 77.992 81.1987 73.104 94.2144C70.836 100.258 71.396 103.554 71.336 109.854C71.3 113.522 71.444 122.158 67.128 123.87C63.78 125.198 60.152 126.514 56.604 126.91Z" fill="#1B1464"/>
<path d="M60.552 88.2746C71.272 95.7104 74.576 114.262 74.848 126.414C74.86 126.982 74.868 127.574 75.12 128.086C75.932 129.762 64.488 130.346 63.56 130.354C59.044 130.398 54.524 129.922 50.116 128.93C45.332 127.854 43.876 126.594 41.032 122.478C38.644 119.022 36.776 115.19 35.768 111.106C34.132 104.478 34.904 97.1184 38.636 91.4065C39.872 89.5145 41.436 87.8026 43.364 86.6266C48.564 83.4627 55.548 84.8026 60.552 88.2746Z" fill="#F7C9A4"/>
<path d="M68.832 127.218C59.652 133.462 48.212 129.774 44.968 127.026C40.244 123.022 37.228 117.05 35.764 111.11C34.128 104.482 34.9 97.1224 38.632 91.4105C39.868 89.5186 41.432 87.8066 43.36 86.6306C48.56 83.4627 55.544 84.8067 60.552 88.2746C66.02 92.0665 69.764 98.2464 70.596 104.85" fill="#F7C9A4"/>
<path d="M126.911 104.763C129.854 104.57 131.976 100.4 131.651 95.4486C131.326 90.4974 128.677 86.6402 125.734 86.8334C122.791 87.0266 120.669 91.1969 120.994 96.1481C121.319 101.099 123.968 104.956 126.911 104.763Z" fill="#1B1464"/>
<path d="M158.16 95.1708C161.103 94.9776 163.226 90.8073 162.901 85.8561C162.576 80.9049 159.926 77.0477 156.983 77.2409C154.04 77.4341 151.918 81.6044 152.243 86.5556C152.568 91.5068 155.217 95.3639 158.16 95.1708Z" fill="#1B1464"/>
<path d="M146.088 130.398C141.616 130.398 137.144 129.074 134.196 127.974C133.152 127.582 132.62 126.422 133.012 125.374C133.404 124.33 134.568 123.798 135.612 124.19C139.004 125.458 147.436 128.05 152.432 124.746C152.832 124.482 152.956 124.338 152.992 124.286C153.004 124.094 152.852 123.586 152.784 123.362C151.512 119.134 149.904 114.93 148.352 110.866C145.96 104.606 143.488 98.1303 142.092 91.2745C141.868 90.1825 142.576 89.1146 143.668 88.8906C144.76 88.6666 145.828 89.3746 146.052 90.4665C147.384 96.9984 149.796 103.314 152.128 109.426C153.708 113.558 155.34 117.834 156.656 122.198C156.888 122.962 157.272 124.238 156.828 125.566C156.4 126.85 155.388 127.634 154.664 128.114C152.116 129.794 149.104 130.398 146.088 130.398Z" fill="#1B1464"/>
<path d="M105.516 95.0784C104.54 95.0784 103.68 94.3664 103.524 93.3705C102.168 84.7187 107.528 75.5269 115.728 72.4509C116.772 72.059 117.936 72.5869 118.328 73.6309C118.72 74.6749 118.192 75.8389 117.148 76.2309C110.676 78.6588 106.444 85.9146 107.516 92.7425C107.688 93.8425 106.936 94.8784 105.832 95.0504C105.724 95.0704 105.62 95.0784 105.516 95.0784Z" fill="#1B1464"/>
<path d="M163.852 71.0192C163.036 71.0192 162.268 70.5192 161.964 69.7112C161.512 68.5072 160.464 67.5032 159.096 66.9552C157.728 66.4072 156.276 66.4112 155.116 66.9632C154.112 67.4472 152.904 67.0192 152.424 66.0152C151.94 65.0112 152.368 63.8032 153.372 63.3192C155.548 62.2752 158.184 62.2352 160.6 63.2032C163.016 64.1712 164.892 66.0232 165.744 68.2832C166.136 69.3272 165.612 70.4912 164.568 70.8872C164.332 70.9752 164.088 71.0192 163.852 71.0192Z" fill="#1B1464"/>
<path d="M137.884 151.273C132.776 151.273 127.664 149.829 123.46 146.961C122.54 146.333 122.3 145.077 122.932 144.153C123.56 143.233 124.816 142.993 125.74 143.621C132.54 148.261 142.18 148.473 149.18 144.129C150.128 143.541 151.372 143.833 151.96 144.781C152.548 145.729 152.256 146.973 151.308 147.561C147.316 150.041 142.6 151.273 137.884 151.273Z" fill="#1B1464"/>
<path d="M115.1 177.181C114.976 177.181 114.852 177.169 114.724 177.145C99.264 174.237 83.752 164.793 71.052 150.553C70.308 149.721 70.384 148.445 71.216 147.701C72.048 146.957 73.324 147.033 74.068 147.865C86.18 161.441 100.884 170.433 115.472 173.173C116.568 173.381 117.288 174.433 117.084 175.529C116.9 176.505 116.052 177.181 115.1 177.181Z" fill="#1B1464"/>
<path d="M49.552 116.57C48.516 116.57 47.632 115.778 47.544 114.726C47.248 111.302 48.584 109.246 49.76 108.122C51.9 106.078 55.024 105.542 57.292 105.458C56.952 104.686 56.456 104.042 55.796 103.518C52.756 101.09 47.336 101.85 47.284 101.858C46.184 102.018 45.156 101.258 44.992 100.158C44.828 99.0583 45.584 98.0304 46.684 97.8624C46.976 97.8184 53.872 96.8224 58.304 100.346C60.428 102.034 61.624 104.414 61.852 107.414C61.9 108.022 61.668 108.618 61.228 109.038C60.784 109.458 60.176 109.65 59.572 109.574C58.228 109.402 54.34 109.326 52.548 111.046C51.76 111.802 51.44 112.89 51.572 114.374C51.668 115.486 50.848 116.466 49.736 116.562C49.672 116.566 49.612 116.57 49.552 116.57Z" fill="#EAAA7F"/>
</svg>
